<?xml version="1.0" encoding="UTF-8"?><svg id="a" xmlns="http://www.w3.org/2000/svg" viewBox="0 0 283.04 283.03"><path d="M194.41,111.87l-46.9-38.2c-3.5-2.9-8.6-2.9-12.1,0l-46.9,38.3c-1.9,1.5-1.9,4.5,0,6l14.7,12c2.1,1.7,5.1,1.7,7.3,0l30.9-25.2,30.9,25.3c2.1,1.7,5.1,1.7,7.3,0l14.7-12c2-1.7,2-4.6,.1-6.2h0Zm47,38.5l40.2-32.7c1.9-1.5,1.9-4.5,0-6L147.52,2.18c-3.5-2.9-8.6-2.9-12.1,0L1.42,111.48c-1.9,1.5-1.9,4.5,0,6l40.2,32.8L1.42,183.08c-1.9,1.5-1.9,4.5,0,6l114.1,93.1c2.5,2,6.2,.3,6.2-3v-94.7c0-2.9-1.3-5.7-3.6-7.5l-32.6-26.6-22-17.9-19-15.7c-1.4-1.1-1.4-3.3,0-4.5L137.91,36.08c2.1-1.7,5.1-1.7,7.3,0l93.4,76.2c1.4,1.1,1.4,3.3,0,4.5l-19.1,15.6-22.1,18-32.6,26.6c-2.3,1.8-3.6,4.6-3.6,7.5v94.7c0,3.2,3.8,5,6.2,3l114.1-93.1c1.9-1.5,1.9-4.5,0-6l-40.1-32.7h0Zm-176,19.4l26.7,21.8c1.3,1.1,2.2,2.8,2.2,4.5v28.8c0,1.6-1.9,2.6-3.1,1.5l-46.7-38.1c-1.4-1.1-1.4-3.3,0-4.5l17.3-14.1c1-.9,2.5-.9,3.6,.1Zm123.4,55.1v-28.8c0-1.7,.8-3.4,2.2-4.5l26.7-21.8c1-.9,2.5-.9,3.6,0l17.3,14.1c1.4,1.1,1.4,3.3,0,4.5l-46.7,38.1c-1.3,.9-3.1,.1-3.1-1.6Z"/></svg>