<?xml version="1.0" encoding="UTF-8"?><svg id="a" xmlns="http://www.w3.org/2000/svg" viewBox="0 0 500.02 123.98"><defs><style>.b{fill:#fff;}</style></defs><path class="b" d="M85.16,49l-20.54-16.73c-1.53-1.27-3.77-1.27-5.3,0l-20.54,16.78c-.83,.66-.83,1.97,0,2.63l6.44,5.26c.92,.74,2.23,.74,3.2,0l13.53-11.04,13.53,11.08c.92,.74,2.23,.74,3.2,0l6.44-5.26c.88-.74,.88-2.01,.04-2.72Zm20.59,16.86l17.61-14.32c.83-.66,.83-1.97,0-2.63L64.62,.95c-1.53-1.27-3.77-1.27-5.3,0L.62,48.83c-.83,.66-.83,1.97,0,2.63l17.61,14.37L.62,80.19c-.83,.66-.83,1.97,0,2.63l49.98,40.78c1.1,.88,2.72,.13,2.72-1.31v-41.48c0-1.27-.57-2.5-1.58-3.29l-14.28-11.65-9.64-7.84-8.32-6.88c-.61-.48-.61-1.45,0-1.97L60.41,15.8c.92-.74,2.23-.74,3.2,0l40.91,33.38c.61,.48,.61,1.45,0,1.97l-8.37,6.83-9.68,7.88-14.28,11.65c-1.01,.79-1.58,2.01-1.58,3.29v41.48c0,1.4,1.66,2.19,2.72,1.31l49.98-40.78c.83-.66,.83-1.97,0-2.63l-17.56-14.32Zm-77.09,8.5l11.7,9.55c.57,.48,.96,1.23,.96,1.97v12.61c0,.7-.83,1.14-1.36,.66l-20.46-16.69c-.61-.48-.61-1.45,0-1.97l7.58-6.18c.44-.39,1.1-.39,1.58,.04h0Zm54.05,24.14v-12.61c0-.74,.35-1.49,.96-1.97l11.7-9.55c.44-.39,1.1-.39,1.58,0l7.58,6.18c.61,.48,.61,1.45,0,1.97l-20.46,16.69c-.57,.39-1.36,.04-1.36-.7h0Z"/><path class="b" d="M165.96,75.71l5.37-7.16-.12-.24-5.25,7.4Zm31.16-42.74h-11.46l-14.21,20.41-14.09-20.41h-11.82l19.94,27.94-20.65,28.89h12.77l39.52-56.83h0Zm.72,56.83l-15.76-22.32-5.97,8,10.03,14.33h11.7Zm39.64-47.53h18.03v-9.31h-46.08v9.31h28.05Zm-10.03,9.31h10.03v38.2h-10.03V51.59Zm90.26,38.2l-15.4-21.49c2.07-.64,3.9-1.39,5.49-2.27,1.75-1.11,3.18-2.35,4.3-3.7,1.27-1.51,2.19-3.14,2.75-4.89,.72-1.91,1.07-4.06,1.07-6.45,0-2.79-.48-5.29-1.43-7.52-.96-2.15-2.35-4.02-4.18-5.61-1.75-1.51-3.98-2.71-6.69-3.58-2.79-.88-5.73-1.31-8.83-1.31h-25.31v9.07h24.47c3.74,0,6.65,.8,8.72,2.39s3.1,3.98,3.1,7.16c0,2.94-1.03,5.25-3.1,6.92-2.07,1.75-4.93,2.63-8.6,2.63h-24.59v28.65h9.91v-19.82h12.54l13.97,19.82h11.81Zm53.37,0h10.74l-20.77-56.95h-10.86l12.06,34.03,8.83,22.92Zm-43.93,0h10.51l12.42-30.32-5.13-13.61-17.79,43.93h-.01Zm69.24-39.87c1.43-3.5,3.5-6.49,6.21-8.95,2.47-2.47,5.65-4.46,9.55-5.97,3.9-1.51,8-2.27,12.3-2.27h13.25v9.07h-13.13c-3.1,0-5.85,.52-8.24,1.55-2.55,1.03-4.62,2.39-6.21,4.06-1.67,1.59-3.02,3.66-4.06,6.21-.96,2.31-1.43,4.89-1.43,7.76s.48,5.45,1.43,7.76c.96,2.39,2.31,4.46,4.06,6.21,1.59,1.59,3.66,2.91,6.21,3.94,2.55,.96,5.29,1.43,8.24,1.43h13.13v9.07h-13.25c-4.46,0-8.52-.72-12.18-2.15-3.82-1.59-7.04-3.62-9.67-6.09-2.71-2.55-4.78-5.57-6.21-9.07-1.51-3.66-2.27-7.4-2.27-11.22,0-4.06,.76-7.84,2.27-11.34h0Zm85.6-7.64h18.03v-9.31h-46.08v9.31h28.05Zm-10.03,9.31h10.03v38.2h-10.03V51.59h0Z"/></svg>