<?xml version="1.0" encoding="UTF-8"?><svg id="a" xmlns="http://www.w3.org/2000/svg" viewBox="0 0 232.42 37.34"><path d="M13.83,28.13l3.52-4.69-.08-.16-3.44,4.84ZM34.22,.16h-7.5l-9.3,13.36L8.2,.16H.47L13.52,18.44,0,37.34H8.36L34.22,.16Zm.47,37.19l-10.31-14.61-3.91,5.23,6.56,9.38h7.66ZM60.63,6.25h11.8V.16h-30.16V6.25h18.36Zm-6.56,6.09h6.56v25h-6.56V12.34Zm59.06,25l-10.08-14.06c1.35-.42,2.55-.91,3.59-1.48,1.15-.73,2.08-1.54,2.81-2.42,.83-.99,1.43-2.06,1.8-3.2,.47-1.25,.7-2.66,.7-4.22,0-1.82-.31-3.46-.94-4.92-.62-1.41-1.54-2.63-2.73-3.67-1.15-.99-2.6-1.77-4.38-2.34-1.82-.57-3.75-.86-5.78-.86h-16.56V6.09h16.02c2.45,0,4.35,.52,5.7,1.56,1.35,1.04,2.03,2.6,2.03,4.69,0,1.93-.68,3.44-2.03,4.53-1.35,1.15-3.23,1.72-5.62,1.72h-16.09v18.75h6.48v-12.97h8.2l9.14,12.97h7.73Zm34.92,0h7.03L141.48,.08h-7.11l7.89,22.27,5.78,15Zm-28.75,0h6.87l8.12-19.84-3.36-8.91-11.64,28.75Zm45.31-26.09c.94-2.29,2.29-4.24,4.06-5.86,1.61-1.61,3.7-2.92,6.25-3.91s5.23-1.48,8.05-1.48h8.67V5.94h-8.59c-2.03,0-3.83,.34-5.39,1.02-1.67,.68-3.02,1.56-4.06,2.66-1.09,1.04-1.98,2.4-2.66,4.06-.62,1.51-.94,3.2-.94,5.08s.31,3.57,.94,5.08c.62,1.56,1.51,2.92,2.66,4.06,1.04,1.04,2.4,1.9,4.06,2.58,1.67,.62,3.46,.94,5.39,.94h8.59v5.94h-8.67c-2.92,0-5.57-.47-7.97-1.41-2.5-1.04-4.61-2.37-6.33-3.98-1.77-1.67-3.12-3.65-4.06-5.94-.99-2.4-1.48-4.84-1.48-7.34,0-2.66,.49-5.13,1.48-7.42h0Zm56.02-5h11.8V.16h-30.16V6.25h18.36Zm-6.56,6.09h6.56v25h-6.56V12.34Z"/></svg>